<svg
   xmlns:dc="http://purl.org/dc/elements/1.1/"
   xmlns:cc="http://creativecommons.org/ns#"
   xmlns:rdf="http://www.w3.org/1999/02/22-rdf-syntax-ns#"
   xmlns:svg="http://www.w3.org/2000/svg"
   xmlns="http://www.w3.org/2000/svg"
   xmlns:sodipodi="http://sodipodi.sourceforge.net/DTD/sodipodi-0.dtd"
   xmlns:inkscape="http://www.inkscape.org/namespaces/inkscape"
   width="27"
   height="16"
   viewBox="0 0 7.1398692 4.2333331"
   version="1.1"
   id="svg37475"
   inkscape:version="0.92.2 (5c3e80d, 2017-08-06)"
   sodipodi:docname="dumbell.svg">
  <defs
     id="defs37469" />
  <sodipodi:namedview
     id="base"
     pagecolor="#ffffff"
     bordercolor="#666666"
     borderopacity="1.0"
     inkscape:pageopacity="0.0"
     inkscape:pageshadow="2"
     inkscape:zoom="15.839192"
     inkscape:cx="21.469645"
     inkscape:cy="16.61658"
     inkscape:document-units="mm"
     inkscape:current-layer="layer1"
     showgrid="false"
     inkscape:window-width="1366"
     inkscape:window-height="705"
     inkscape:window-x="1672"
     inkscape:window-y="274"
     inkscape:window-maximized="1" />
  <g
     inkscape:label="Layer 1"
     inkscape:groupmode="layer"
     id="layer1"
     transform="translate(-141.52975,-141.36087)">
    <g
       style="display:inline"
       transform="matrix(0.35277777,0,0,-0.35277777,148.46042,143.58937)"
       id="g25321">
      <path
         inkscape:connector-curvature="0"
         id="path25323"
         style="fill:#fefefe;fill-opacity:1;fill-rule:nonzero;stroke:none"
         d="m 0,0 c 0,-0.011 -0.009,-0.02 -0.021,-0.02 h -1.288 v 0.674 h 1.288 C -0.009,0.654 0,0.645 0,0.634 Z m -1.901,-3.644 c 0,-0.273 -0.222,-0.495 -0.495,-0.495 -0.274,0 -0.497,0.222 -0.497,0.495 v 6.179 c 0,0.164 -0.132,0.297 -0.296,0.297 -0.164,0 -0.296,-0.133 -0.296,-0.297 v -6.971 c 0,-0.36 -0.294,-0.654 -0.655,-0.654 -0.36,0 -0.654,0.294 -0.654,0.654 V 5.07 c 0,0.361 0.294,0.654 0.654,0.654 0.361,0 0.655,-0.293 0.655,-0.654 V 3.802 c 0,-0.163 0.132,-0.296 0.296,-0.296 0.164,0 0.296,0.133 0.296,0.296 v 0.476 c 0,0.273 0.223,0.495 0.497,0.495 0.273,0 0.495,-0.222 0.495,-0.495 z m -11.765,4.615 h 8.279 v -1.308 h -8.279 z m -0.593,-5.407 c 0,-0.36 -0.293,-0.654 -0.654,-0.654 -0.36,0 -0.653,0.294 -0.653,0.654 v 1.268 c 0,0.164 -0.133,0.296 -0.297,0.296 -0.164,0 -0.296,-0.132 -0.296,-0.296 v -0.476 c 0,-0.273 -0.223,-0.495 -0.496,-0.495 -0.274,0 -0.496,0.222 -0.496,0.495 v 7.922 c 0,0.273 0.222,0.495 0.496,0.495 0.273,0 0.496,-0.222 0.496,-0.495 v -6.179 c 0,-0.163 0.132,-0.296 0.296,-0.296 0.164,0 0.297,0.133 0.297,0.296 V 5.07 c 0,0.361 0.293,0.654 0.653,0.654 0.361,0 0.654,-0.293 0.654,-0.654 z m -4.772,4.416 c -0.012,0 -0.021,0.009 -0.021,0.02 v 0.634 c 0,0.011 0.009,0.02 0.021,0.02 h 1.287 V -0.02 Z m 19.01,1.267 h -1.288 v 3.031 c 0,0.6 -0.488,1.088 -1.087,1.088 -0.184,0 -0.357,-0.045 -0.508,-0.126 -0.084,0.608 -0.606,1.077 -1.236,1.077 -0.687,0 -1.247,-0.56 -1.247,-1.247 V 1.564 h -8.279 V 5.07 c 0,0.687 -0.559,1.247 -1.247,1.247 -0.629,0 -1.151,-0.469 -1.234,-1.077 -0.153,0.081 -0.325,0.126 -0.508,0.126 -0.601,0 -1.089,-0.488 -1.089,-1.088 V 1.247 h -1.287 c -0.339,0 -0.615,-0.275 -0.615,-0.613 V 0 c 0,-0.338 0.276,-0.613 0.615,-0.613 h 1.287 v -3.031 c 0,-0.6 0.488,-1.088 1.089,-1.088 0.183,0 0.355,0.045 0.508,0.126 0.083,-0.607 0.605,-1.077 1.235,-1.077 0.687,0 1.246,0.559 1.246,1.247 v 3.506 h 8.279 v -3.506 c 0,-0.688 0.56,-1.247 1.247,-1.247 0.63,0 1.152,0.47 1.236,1.077 0.151,-0.081 0.324,-0.126 0.508,-0.126 0.599,0 1.087,0.488 1.087,1.088 v 3.031 h 1.288 c 0.338,0 0.614,0.275 0.614,0.613 v 0.634 c 0,0.338 -0.276,0.613 -0.614,0.613" />
    </g>
  </g>
</svg>
