<svg
   xmlns:dc="http://purl.org/dc/elements/1.1/"
   xmlns:cc="http://creativecommons.org/ns#"
   xmlns:rdf="http://www.w3.org/1999/02/22-rdf-syntax-ns#"
   xmlns:svg="http://www.w3.org/2000/svg"
   xmlns="http://www.w3.org/2000/svg"
   xmlns:sodipodi="http://sodipodi.sourceforge.net/DTD/sodipodi-0.dtd"
   xmlns:inkscape="http://www.inkscape.org/namespaces/inkscape"
   width="12.347222mm"
   height="12.347222mm"
   viewBox="0 0 12.347222 12.347223"
   version="1.1"
   id="svg37475"
   inkscape:version="0.92.2 (5c3e80d, 2017-08-06)"
   sodipodi:docname="fb_foot.svg">
  <defs
     id="defs37469">
    <clipPath
       id="clipPath25359"
       clipPathUnits="userSpaceOnUse">
      <path
         inkscape:connector-curvature="0"
         id="path25357"
         d="M 0,3087.842 H 1909.904 V 0 H 0 Z" />
    </clipPath>
  </defs>
  <sodipodi:namedview
     id="base"
     pagecolor="#ffffff"
     bordercolor="#666666"
     borderopacity="1.0"
     inkscape:pageopacity="0.0"
     inkscape:pageshadow="2"
     inkscape:zoom="1.979899"
     inkscape:cx="64.931208"
     inkscape:cy="75.989336"
     inkscape:document-units="mm"
     inkscape:current-layer="layer1"
     showgrid="false"
     inkscape:window-width="1366"
     inkscape:window-height="705"
     inkscape:window-x="1672"
     inkscape:window-y="274"
     inkscape:window-maximized="1" />
  <g
     inkscape:label="Layer 1"
     inkscape:groupmode="layer"
     id="layer1"
     transform="translate(-169.43799,-160.27401)">
    <g
       transform="matrix(0.35277777,0,0,-0.35277777,-131.78861,194.56038)"
       style="display:inline"
       id="g38340">
      <g
         id="g37211">
        <g
           transform="translate(867.9805,80.2303)"
           id="g25475">
          <path
             inkscape:connector-curvature="0"
             id="path25477"
             style="fill:#ffffff;fill-opacity:1;fill-rule:nonzero;stroke:none"
             d="m 0,0 v 1.898 h 1.127 c 0.302,0 0.547,0.245 0.547,0.547 v 1.937 c 0,0.354 0.056,1.256 0.584,1.972 0.505,0.687 1.319,1.035 2.418,1.035 L 6.739,7.381 V 5.566 H 5.394 C 4.75,5.566 4.1,5.146 4.1,4.204 V 2.444 C 4.1,2.143 4.345,1.898 4.646,1.898 H 6.725 L 6.528,-0.001 H 4.646 C 4.345,-0.001 4.1,-0.245 4.1,-0.547 V -8.471 H 1.674 v 7.924 C 1.674,-0.245 1.429,0 1.127,0 Z m 1.127,-9.564 h 3.519 c 0.302,0 0.547,0.245 0.547,0.546 v 7.924 h 1.829 c 0.281,0 0.515,0.212 0.544,0.49 L 7.875,2.389 C 7.891,2.543 7.84,2.696 7.736,2.812 7.633,2.927 7.485,2.992 7.33,2.992 H 5.193 v 1.212 c 0,0.25 0.079,0.269 0.201,0.269 h 1.892 c 0.302,0 0.547,0.245 0.547,0.547 v 2.905 c 0,0.302 -0.243,0.546 -0.545,0.547 L 4.679,8.482 C 2.85,8.482 1.874,7.678 1.377,7.003 0.684,6.061 0.58,4.956 0.58,4.382 v -1.39 h -1.127 c -0.303,0 -0.547,-0.245 -0.547,-0.547 v -2.992 c 0,-0.302 0.244,-0.547 0.547,-0.547 H 0.58 v -7.924 c 0,-0.301 0.244,-0.546 0.547,-0.546" />
        </g>
        <g
           id="g37200">
          <g
             id="g25479"
             transform="translate(882.9717,68.0877)">
            <path
               d="m 0,0 c -3.099,-3.099 -7.219,-4.805 -11.601,-4.805 -4.382,0 -8.503,1.706 -11.601,4.805 -3.099,3.099 -4.805,7.219 -4.805,11.602 0,4.381 1.706,8.502 4.805,11.6 3.099,3.099 7.219,4.806 11.601,4.806 4.382,0 8.502,-1.707 11.601,-4.806 3.099,-3.098 4.805,-7.219 4.805,-11.6 C 4.805,7.219 3.099,3.099 0,0 m 0.773,23.976 c -3.305,3.305 -7.7,5.126 -12.374,5.126 -4.674,0 -9.069,-1.821 -12.375,-5.126 -3.304,-3.306 -5.125,-7.7 -5.125,-12.374 0,-4.675 1.821,-9.07 5.125,-12.375 3.306,-3.305 7.701,-5.125 12.375,-5.125 4.674,0 9.069,1.82 12.374,5.125 3.305,3.305 5.126,7.7 5.126,12.375 0,4.674 -1.821,9.069 -5.126,12.374"
               style="fill:#ffffff;fill-opacity:1;fill-rule:nonzero;stroke:none"
               id="path25481"
               inkscape:connector-curvature="0" />
          </g>
        </g>
        <g
           transform="translate(883.2676,89.3299)"
           id="g25483">
          <path
             inkscape:connector-curvature="0"
             id="path25485"
             style="fill:#ffffff;fill-opacity:1;fill-rule:nonzero;stroke:none"
             d="m 0,0 c -0.19,0.234 -0.534,0.271 -0.77,0.08 -0.234,-0.19 -0.27,-0.534 -0.08,-0.768 2.045,-2.521 3.171,-5.7 3.171,-8.953 0,-3.798 -1.478,-7.369 -4.164,-10.054 -2.685,-2.686 -6.256,-4.164 -10.053,-4.164 -3.505,0 -6.872,1.286 -9.48,3.62 -0.226,0.201 -0.57,0.182 -0.772,-0.043 -0.202,-0.225 -0.182,-0.571 0.043,-0.772 2.809,-2.514 6.434,-3.899 10.209,-3.899 4.089,0 7.935,1.593 10.827,4.484 2.891,2.893 4.484,6.738 4.484,10.828 C 3.415,-6.138 2.202,-2.715 0,0" />
        </g>
        <g
           transform="translate(857.1514,79.6893)"
           id="g25487">
          <path
             inkscape:connector-curvature="0"
             id="path25489"
             style="fill:#ffffff;fill-opacity:1;fill-rule:nonzero;stroke:none"
             d="m 0,0 c 0,7.841 6.379,14.219 14.22,14.219 3.504,0 6.87,-1.285 9.478,-3.62 0.225,-0.202 0.571,-0.182 0.772,0.043 0.202,0.224 0.182,0.57 -0.042,0.771 -2.81,2.515 -6.435,3.9 -10.208,3.9 -4.09,0 -7.936,-1.593 -10.828,-4.486 C 0.5,7.936 -1.093,4.09 -1.093,0 c 0,-3.503 1.213,-6.927 3.415,-9.641 0.109,-0.133 0.266,-0.203 0.425,-0.203 0.121,0 0.243,0.04 0.345,0.123 0.234,0.19 0.27,0.534 0.08,0.769 C 1.127,-6.432 0,-3.252 0,0" />
        </g>
      </g>
    </g>
  </g>
</svg>
