<svg
   xmlns:dc="http://purl.org/dc/elements/1.1/"
   xmlns:cc="http://creativecommons.org/ns#"
   xmlns:rdf="http://www.w3.org/1999/02/22-rdf-syntax-ns#"
   xmlns:svg="http://www.w3.org/2000/svg"
   xmlns="http://www.w3.org/2000/svg"
   xmlns:sodipodi="http://sodipodi.sourceforge.net/DTD/sodipodi-0.dtd"
   xmlns:inkscape="http://www.inkscape.org/namespaces/inkscape"
   width="26"
   height="17"
   viewBox="0 0 7.141633 4.5346055"
   version="1.1"
   id="svg37475"
   inkscape:version="0.92.2 (5c3e80d, 2017-08-06)"
   sodipodi:docname="groups.svg">
  <defs
     id="defs37469" />
  <sodipodi:namedview
     id="base"
     pagecolor="#ffffff"
     bordercolor="#666666"
     borderopacity="1.0"
     inkscape:pageopacity="0.0"
     inkscape:pageshadow="2"
     inkscape:zoom="15.839192"
     inkscape:cx="23.475161"
     inkscape:cy="5.6142192"
     inkscape:document-units="mm"
     inkscape:current-layer="layer1"
     showgrid="false"
     inkscape:window-width="1366"
     inkscape:window-height="705"
     inkscape:window-x="1672"
     inkscape:window-y="274"
     inkscape:window-maximized="1" />
  <g
     inkscape:label="Layer 1"
     inkscape:groupmode="layer"
     id="layer1"
     transform="translate(-140.99912,-140.82125)">
    <g
       style="display:inline"
       transform="matrix(0.35277777,0,0,-0.35277777,146.35041,144.04176)"
       id="g25325">
      <path
         inkscape:connector-curvature="0"
         id="path25327"
         style="fill:#fefefe;fill-opacity:1;fill-rule:nonzero;stroke:none"
         d="M 0,0 C -0.22,0.845 -0.641,1.602 -1.214,2.227 -0.621,2.74 0.148,3.048 0.989,3.056 H 1.014 1.038 C 2.788,3.044 4.23,1.707 4.41,0 Z m -0.477,-1.594 c 0,-0.822 -0.669,-1.49 -1.49,-1.49 h -6.209 c -0.82,0 -1.489,0.668 -1.489,1.49 v 0.272 c 0,2.488 1.986,4.523 4.458,4.594 0.044,-0.003 0.092,-0.003 0.136,-0.003 0.044,0 0.092,0 0.136,0.003 2.472,-0.071 4.458,-2.106 4.458,-4.594 z M -10.142,0 h -4.379 c 0.181,1.707 1.623,3.044 3.374,3.056 h 0.024 0.023 C -10.267,3.052 -9.505,2.744 -8.916,2.243 -9.493,1.618 -9.922,0.849 -10.142,0 m -2.652,5.368 c 0,0.921 0.749,1.67 1.671,1.67 0.921,0 1.67,-0.749 1.67,-1.67 0,-0.91 -0.734,-1.651 -1.639,-1.671 h -0.031 -0.032 c -0.906,0.016 -1.639,0.757 -1.639,1.671 m 5.432,0.833 c 0,1.261 1.025,2.287 2.287,2.287 1.262,0 2.287,-1.026 2.287,-2.287 0,-1.218 -0.957,-2.215 -2.154,-2.284 h -0.133 -0.132 c -1.198,0.069 -2.155,1.066 -2.155,2.284 m 6.705,-0.833 c 0,0.921 0.75,1.67 1.671,1.67 0.921,0 1.67,-0.749 1.67,-1.67 0,-0.91 -0.733,-1.651 -1.638,-1.671 H 1.014 0.981 C 0.072,3.713 -0.657,4.454 -0.657,5.368 M 2.34,3.473 c 0.593,0.417 0.985,1.11 0.985,1.891 0,1.278 -1.034,2.311 -2.311,2.311 -1.279,0 -2.312,-1.033 -2.312,-2.311 0,-0.781 0.389,-1.474 0.986,-1.891 -0.509,-0.176 -0.973,-0.449 -1.366,-0.801 -0.541,0.46 -1.177,0.813 -1.875,1.021 0.845,0.513 1.414,1.446 1.414,2.508 0,1.618 -1.309,2.928 -2.928,2.928 -1.619,0 -2.928,-1.314 -2.928,-2.928 0,-1.062 0.564,-1.995 1.414,-2.508 -0.69,-0.208 -1.318,-0.557 -1.855,-1.009 -0.392,0.344 -0.849,0.613 -1.349,0.785 0.593,0.416 0.985,1.11 0.985,1.89 0,1.278 -1.034,2.312 -2.311,2.312 -1.279,0 -2.312,-1.034 -2.312,-2.312 0,-0.78 0.389,-1.474 0.985,-1.89 -1.589,-0.549 -2.731,-2.059 -2.731,-3.833 v -0.265 c 0,-0.008 0.008,-0.016 0.016,-0.016 h 4.899 c -0.028,-0.22 -0.044,-0.449 -0.044,-0.677 v -0.272 c 0,-1.178 0.953,-2.131 2.131,-2.131 h 6.208 c 1.178,0 2.132,0.953 2.132,2.131 v 0.272 c 0,0.228 -0.017,0.457 -0.045,0.677 H 5.06 c 0.007,0 0.015,0.008 0.015,0.016 v 0.265 C 5.067,1.414 3.93,2.924 2.34,3.473" />
    </g>
  </g>
</svg>
