<svg
   xmlns:dc="http://purl.org/dc/elements/1.1/"
   xmlns:cc="http://creativecommons.org/ns#"
   xmlns:rdf="http://www.w3.org/1999/02/22-rdf-syntax-ns#"
   xmlns:svg="http://www.w3.org/2000/svg"
   xmlns="http://www.w3.org/2000/svg"
   xmlns:sodipodi="http://sodipodi.sourceforge.net/DTD/sodipodi-0.dtd"
   xmlns:inkscape="http://www.inkscape.org/namespaces/inkscape"
   width="18"
   height="18"
   viewBox="0 0 4.7910747 4.791173"
   version="1.1"
   id="svg37475"
   inkscape:version="0.92.2 (5c3e80d, 2017-08-06)"
   sodipodi:docname="library.svg">
  <defs
     id="defs37469" />
  <sodipodi:namedview
     id="base"
     pagecolor="#ffffff"
     bordercolor="#666666"
     borderopacity="1.0"
     inkscape:pageopacity="0.0"
     inkscape:pageshadow="2"
     inkscape:zoom="15.839192"
     inkscape:cx="10.558335"
     inkscape:cy="8.5445284"
     inkscape:document-units="mm"
     inkscape:current-layer="layer1"
     showgrid="false"
     inkscape:window-width="1366"
     inkscape:window-height="705"
     inkscape:window-x="1672"
     inkscape:window-y="274"
     inkscape:window-maximized="1" />
  <g
     inkscape:label="Layer 1"
     inkscape:groupmode="layer"
     id="layer1"
     transform="translate(-144.4167,-141.33999)">
    <g
       transform="matrix(0.35277777,0,0,-0.35277777,-186.39533,1221.2658)"
       style="display:inline"
       id="g36944">
      <g
         id="g25265"
         transform="translate(945.4542,3054.7664)">
        <path
           d="m 0,0 c 0.04,-0.078 0.12,-0.124 0.202,-0.124 0.035,0 0.07,0.008 0.103,0.025 C 0.318,-0.092 1.65,0.585 2.308,0.792 2.427,0.83 2.493,0.958 2.455,1.077 2.418,1.196 2.291,1.262 2.171,1.224 1.479,1.005 0.155,0.333 0.1,0.305 -0.012,0.248 -0.057,0.112 0,0"
           style="fill:#fefefe;fill-opacity:1;fill-rule:nonzero;stroke:none"
           id="path25267"
           inkscape:connector-curvature="0" />
      </g>
      <g
         id="g25269"
         transform="translate(945.6563,3057.3591)">
        <path
           d="M 0,0 C 0.035,0 0.07,0.008 0.103,0.025 0.116,0.031 1.448,0.708 2.105,0.916 2.225,0.954 2.291,1.081 2.253,1.2 2.216,1.319 2.089,1.385 1.969,1.348 1.276,1.129 -0.047,0.457 -0.103,0.428 -0.214,0.372 -0.259,0.235 -0.202,0.124 -0.162,0.045 -0.082,0 0,0"
           style="fill:#fefefe;fill-opacity:1;fill-rule:nonzero;stroke:none"
           id="path25271"
           inkscape:connector-curvature="0" />
      </g>
      <g
         id="g25273"
         transform="translate(951.0889,3057.8118)">
        <path
           d="m 0,0 c -0.125,0 -0.227,-0.102 -0.227,-0.226 v -8.828 c 0,-0.374 -0.304,-0.679 -0.678,-0.679 h -5.433 v 0.521 c 0.33,0.115 1.19,0.384 2.037,0.384 1.972,0 3.311,-0.436 3.324,-0.441 0.069,-0.023 0.144,-0.011 0.204,0.032 0.059,0.042 0.094,0.111 0.094,0.183 v 9.959 c 0,0.107 -0.074,0.199 -0.177,0.221 0,0 -0.178,0.04 -0.481,0.096 C -1.46,1.245 -1.578,1.163 -1.601,1.04 -1.623,0.917 -1.542,0.799 -1.419,0.776 -1.304,0.755 -1.206,0.736 -1.132,0.722 v -9.475 c -0.513,0.134 -1.651,0.378 -3.169,0.378 -0.986,0 -1.955,-0.324 -2.255,-0.434 -0.266,0.118 -1.071,0.434 -2.046,0.434 -1.558,0 -2.843,-0.257 -3.395,-0.388 V 0.73 c 0.452,0.111 1.787,0.402 3.395,0.402 0.826,0 1.534,-0.257 1.811,-0.373 v -8.907 c 0,-0.082 0.044,-0.158 0.115,-0.198 0.071,-0.04 0.158,-0.039 0.229,0.003 0.022,0.014 2.264,1.353 4.255,2.017 0.092,0.031 0.155,0.117 0.155,0.215 v 9.28 c 0,0.074 -0.036,0.144 -0.098,0.186 -0.06,0.042 -0.138,0.052 -0.209,0.026 C -4.154,2.702 -5.986,1.562 -6.005,1.55 -6.111,1.484 -6.144,1.344 -6.077,1.238 -6.011,1.132 -5.871,1.1 -5.766,1.166 c 0.018,0.011 1.612,1.003 3.276,1.672 v -8.787 c -1.545,-0.537 -3.158,-1.414 -3.848,-1.806 v 8.66 c 0,0.086 -0.049,0.164 -0.125,0.203 -0.039,0.019 -0.967,0.476 -2.139,0.476 -2.044,0 -3.617,-0.442 -3.683,-0.461 -0.098,-0.028 -0.164,-0.117 -0.164,-0.218 v -9.959 c 0,-0.071 0.033,-0.138 0.09,-0.181 0.04,-0.03 0.088,-0.045 0.136,-0.045 0.021,0 0.041,0.003 0.062,0.009 0.015,0.004 1.581,0.443 3.559,0.443 0.828,0 1.536,-0.257 1.811,-0.373 v -0.532 h -5.432 c -0.375,0 -0.679,0.305 -0.679,0.679 v 8.828 c 0,0.124 -0.102,0.226 -0.226,0.226 -0.125,0 -0.226,-0.102 -0.226,-0.226 v -8.828 c 0,-0.624 0.507,-1.132 1.131,-1.132 h 11.318 c 0.624,0 1.132,0.508 1.132,1.132 v 8.828 C 0.227,-0.102 0.125,0 0,0"
           style="fill:#fefefe;fill-opacity:1;fill-rule:nonzero;stroke:none"
           id="path25275"
           inkscape:connector-curvature="0" />
      </g>
      <g
         id="g25277"
         transform="translate(945.4542,3056.1248)">
        <path
           d="m 0,0 c 0.04,-0.079 0.12,-0.124 0.202,-0.124 0.035,0 0.07,0.008 0.103,0.025 C 0.318,-0.092 1.65,0.584 2.308,0.792 2.427,0.83 2.493,0.957 2.455,1.076 2.418,1.195 2.291,1.262 2.171,1.224 1.479,1.005 0.155,0.333 0.1,0.304 -0.012,0.248 -0.057,0.111 0,0"
           style="fill:#fefefe;fill-opacity:1;fill-rule:nonzero;stroke:none"
           id="path25279"
           inkscape:connector-curvature="0" />
      </g>
      <g
         id="g25281"
         transform="translate(945.4542,3053.4084)">
        <path
           d="m 0,0 c 0.04,-0.078 0.12,-0.124 0.202,-0.124 0.035,0 0.07,0.008 0.103,0.025 C 0.318,-0.092 1.65,0.584 2.308,0.792 2.427,0.83 2.493,0.957 2.455,1.076 2.418,1.195 2.291,1.262 2.171,1.224 1.479,1.005 0.155,0.333 0.1,0.304 -0.012,0.248 -0.057,0.111 0,0"
           style="fill:#fefefe;fill-opacity:1;fill-rule:nonzero;stroke:none"
           id="path25283"
           inkscape:connector-curvature="0" />
      </g>
      <g
         id="g25285"
         transform="translate(943.2178,3057.0066)">
        <path
           d="m 0,0 c -1.397,0.328 -2.985,-0.09 -3.053,-0.108 -0.12,-0.032 -0.192,-0.156 -0.16,-0.277 0.027,-0.101 0.119,-0.168 0.219,-0.168 0.019,0 0.039,0.003 0.058,0.008 0.016,0.004 1.545,0.406 2.833,0.104 0.122,-0.028 0.244,0.047 0.272,0.169 C 0.198,-0.15 0.122,-0.029 0,0"
           style="fill:#fefefe;fill-opacity:1;fill-rule:nonzero;stroke:none"
           id="path25287"
           inkscape:connector-curvature="0" />
      </g>
      <g
         id="g25289"
         transform="translate(943.2178,3055.6482)">
        <path
           d="m 0,0 c -1.397,0.328 -2.985,-0.09 -3.053,-0.107 -0.12,-0.033 -0.192,-0.157 -0.16,-0.278 0.027,-0.101 0.119,-0.168 0.219,-0.168 0.019,0 0.039,0.003 0.058,0.008 0.016,0.004 1.545,0.407 2.833,0.105 0.122,-0.029 0.244,0.046 0.272,0.169 C 0.198,-0.15 0.122,-0.028 0,0"
           style="fill:#fefefe;fill-opacity:1;fill-rule:nonzero;stroke:none"
           id="path25291"
           inkscape:connector-curvature="0" />
      </g>
      <g
         id="g25293"
         transform="translate(945.4542,3052.0505)">
        <path
           d="m 0,0 c 0.04,-0.079 0.12,-0.124 0.202,-0.124 0.035,0 0.07,0.008 0.103,0.025 C 0.318,-0.092 1.65,0.584 2.308,0.792 2.427,0.83 2.493,0.957 2.455,1.076 2.418,1.195 2.291,1.261 2.171,1.224 1.479,1.005 0.155,0.333 0.1,0.304 -0.012,0.248 -0.057,0.111 0,0"
           style="fill:#fefefe;fill-opacity:1;fill-rule:nonzero;stroke:none"
           id="path25295"
           inkscape:connector-curvature="0" />
      </g>
      <g
         id="g25297"
         transform="translate(943.2178,3054.2903)">
        <path
           d="m 0,0 c -1.397,0.328 -2.985,-0.09 -3.053,-0.108 -0.12,-0.032 -0.192,-0.156 -0.16,-0.277 0.027,-0.101 0.119,-0.168 0.219,-0.168 0.019,0 0.039,0.003 0.058,0.008 0.016,0.004 1.545,0.406 2.833,0.104 0.122,-0.028 0.244,0.047 0.272,0.169 C 0.198,-0.15 0.122,-0.029 0,0"
           style="fill:#fefefe;fill-opacity:1;fill-rule:nonzero;stroke:none"
           id="path25299"
           inkscape:connector-curvature="0" />
      </g>
      <g
         id="g25301"
         transform="translate(943.2178,3051.574)">
        <path
           d="m 0,0 c -1.397,0.328 -2.985,-0.09 -3.053,-0.107 -0.12,-0.033 -0.192,-0.157 -0.16,-0.278 0.027,-0.101 0.119,-0.168 0.219,-0.168 0.019,0 0.039,0.003 0.058,0.008 0.016,0.004 1.545,0.406 2.833,0.105 0.122,-0.029 0.244,0.046 0.272,0.168 C 0.198,-0.15 0.122,-0.028 0,0"
           style="fill:#fefefe;fill-opacity:1;fill-rule:nonzero;stroke:none"
           id="path25303"
           inkscape:connector-curvature="0" />
      </g>
      <g
         id="g25305"
         transform="translate(943.2178,3052.9319)">
        <path
           d="m 0,0 c -1.397,0.328 -2.985,-0.089 -3.053,-0.107 -0.12,-0.033 -0.192,-0.157 -0.16,-0.278 0.027,-0.101 0.119,-0.168 0.219,-0.168 0.019,0 0.039,0.003 0.058,0.008 0.016,0.004 1.545,0.407 2.833,0.105 0.122,-0.029 0.244,0.046 0.272,0.169 C 0.198,-0.15 0.122,-0.028 0,0"
           style="fill:#fefefe;fill-opacity:1;fill-rule:nonzero;stroke:none"
           id="path25307"
           inkscape:connector-curvature="0" />
      </g>
    </g>
  </g>
</svg>
