<svg
   xmlns:dc="http://purl.org/dc/elements/1.1/"
   xmlns:cc="http://creativecommons.org/ns#"
   xmlns:rdf="http://www.w3.org/1999/02/22-rdf-syntax-ns#"
   xmlns:svg="http://www.w3.org/2000/svg"
   xmlns="http://www.w3.org/2000/svg"
   xmlns:sodipodi="http://sodipodi.sourceforge.net/DTD/sodipodi-0.dtd"
   xmlns:inkscape="http://www.inkscape.org/namespaces/inkscape"
   width="7.0975361mm"
   height="7.0975361mm"
   viewBox="0 0 7.0975361 7.0975361"
   version="1.1"
   id="svg5842"
   inkscape:version="0.92.2 (5c3e80d, 2017-08-06)"
   sodipodi:docname="lin.svg">
  <defs
     id="defs5836" />
  <sodipodi:namedview
     id="base"
     pagecolor="#ffffff"
     bordercolor="#666666"
     borderopacity="1.0"
     inkscape:pageopacity="0.0"
     inkscape:pageshadow="2"
     inkscape:zoom="0.35"
     inkscape:cx="-568.01591"
     inkscape:cy="99.12696"
     inkscape:document-units="mm"
     inkscape:current-layer="layer1"
     showgrid="false"
     inkscape:window-width="1366"
     inkscape:window-height="705"
     inkscape:window-x="1912"
     inkscape:window-y="481"
     inkscape:window-maximized="1" />
  <g
     inkscape:label="Layer 1"
     inkscape:groupmode="layer"
     id="layer1"
     transform="translate(-133.27861,-167.96314)">
    <g
       id="g5814"
       transform="matrix(0.35277777,0,0,-0.35277777,-146.44202,772.63228)">
      <g
         transform="translate(809.6369,1697.2948)"
         id="g1334">
        <path
           inkscape:connector-curvature="0"
           id="path1336"
           style="fill:#ffffff;fill-opacity:1;fill-rule:nonzero;stroke:none"
           d="m 0,0 c -1.781,-1.781 -4.149,-2.762 -6.668,-2.762 -2.52,0 -4.887,0.981 -6.668,2.762 -1.782,1.781 -2.763,4.149 -2.763,6.669 0,2.519 0.981,4.887 2.763,6.668 1.781,1.781 4.149,2.762 6.668,2.762 2.519,0 4.887,-0.981 6.668,-2.762 C 1.781,11.556 2.762,9.188 2.762,6.669 2.762,4.149 1.781,1.781 0,0 m 0.445,13.781 c -1.9,1.901 -4.426,2.947 -7.113,2.947 -2.687,0 -5.213,-1.046 -7.113,-2.947 -1.9,-1.899 -2.947,-4.426 -2.947,-7.112 0,-2.688 1.047,-5.214 2.947,-7.113 1.9,-1.9 4.426,-2.947 7.113,-2.947 2.687,0 5.213,1.047 7.113,2.947 1.899,1.899 2.946,4.425 2.946,7.113 0,2.686 -1.047,5.213 -2.946,7.112" />
      </g>
      <g
         transform="translate(809.8073,1709.5048)"
         id="g1338">
        <path
           inkscape:connector-curvature="0"
           id="path1340"
           style="fill:#ffffff;fill-opacity:1;fill-rule:nonzero;stroke:none"
           d="m 0,0 c -0.109,0.135 -0.308,0.156 -0.442,0.046 -0.136,-0.109 -0.156,-0.307 -0.046,-0.442 1.175,-1.449 1.822,-3.276 1.822,-5.145 0,-2.184 -0.85,-4.236 -2.394,-5.779 -1.543,-1.544 -3.596,-2.394 -5.779,-2.394 -2.014,0 -3.949,0.738 -5.448,2.08 -0.13,0.116 -0.328,0.106 -0.444,-0.024 -0.116,-0.129 -0.105,-0.328 0.024,-0.444 1.615,-1.445 3.699,-2.241 5.868,-2.241 2.351,0 4.562,0.915 6.224,2.577 1.662,1.663 2.578,3.873 2.578,6.225 C 1.963,-3.528 1.266,-1.561 0,0" />
      </g>
      <g
         transform="translate(794.7956,1703.9637)"
         id="g1342">
        <path
           inkscape:connector-curvature="0"
           id="path1344"
           style="fill:#ffffff;fill-opacity:1;fill-rule:nonzero;stroke:none"
           d="m 0,0 c 0,4.507 3.667,8.173 8.173,8.173 2.014,0 3.949,-0.739 5.449,-2.081 0.129,-0.116 0.328,-0.105 0.443,0.024 0.116,0.13 0.105,0.328 -0.024,0.445 C 12.426,8.006 10.342,8.802 8.173,8.802 5.822,8.802 3.612,7.886 1.95,6.224 0.287,4.561 -0.629,2.351 -0.629,0 c 0,-2.014 0.697,-3.981 1.963,-5.542 0.062,-0.076 0.153,-0.116 0.245,-0.116 0.069,0 0.14,0.022 0.198,0.07 0.134,0.109 0.155,0.308 0.046,0.442 C 0.647,-3.697 0,-1.869 0,0" />
      </g>
      <g
         transform="translate(804.3019,1705.3221)"
         id="g1362">
        <path
           inkscape:connector-curvature="0"
           id="path1364"
           style="fill:#ffffff;fill-opacity:1;fill-rule:nonzero;stroke:none"
           d="M 0,0 C -0.48,0 -0.88,-0.282 -1.069,-0.753 -1.12,-0.875 -1.143,-1.027 -1.143,-1.246 v -2.452 h -1.091 c 0.003,0.843 0.013,3.435 0.004,4.337 h 1.087 V 0.211 c 0,-0.115 0.077,-0.217 0.187,-0.25 0.111,-0.032 0.23,0.012 0.293,0.108 0.219,0.338 0.537,0.683 1.236,0.683 1.017,0 1.6,-0.701 1.6,-1.925 V -3.698 H 1.079 v 2.339 C 1.079,-0.965 1,-0.647 0.844,-0.419 0.657,-0.145 0.366,0 0,0 m 0.818,-4.22 h 1.615 c 0.144,0 0.261,0.117 0.261,0.261 v 2.785 c 0,0.782 -0.202,1.399 -0.601,1.83 -0.372,0.404 -0.898,0.617 -1.52,0.617 -0.54,0 -0.92,-0.165 -1.194,-0.378 v 0.003 c 0,0.145 -0.117,0.261 -0.261,0.261 h -1.614 c -0.071,0 -0.139,-0.029 -0.189,-0.08 -0.049,-0.052 -0.075,-0.121 -0.072,-0.192 0.021,-0.444 0,-4.801 0,-4.844 0,-0.07 0.027,-0.137 0.076,-0.186 0.049,-0.048 0.115,-0.077 0.185,-0.077 h 1.614 c 0.144,0 0.261,0.117 0.261,0.261 v 2.713 c 0,0.142 0.011,0.24 0.034,0.297 0.052,0.128 0.213,0.428 0.587,0.428 0.153,0 0.558,0 0.558,-0.838 v -2.6 c 0,-0.144 0.116,-0.261 0.26,-0.261" />
      </g>
      <g
         transform="translate(800.1047,1707.1454)"
         id="g1366">
        <path
           inkscape:connector-curvature="0"
           id="path1368"
           style="fill:#ffffff;fill-opacity:1;fill-rule:nonzero;stroke:none"
           d="m 0,0 h -0.011 c -0.378,0 -0.631,0.232 -0.631,0.579 0,0.346 0.262,0.579 0.652,0.579 0.388,0 0.634,-0.222 0.643,-0.582 C 0.651,0.231 0.389,0 0,0 M 1.174,0.584 C 1.161,1.229 0.682,1.679 0.01,1.679 c -0.68,0 -1.173,-0.463 -1.173,-1.1 0,-0.638 0.484,-1.1 1.152,-1.1 H 0 c 0.68,0 1.174,0.462 1.174,1.1 z" />
      </g>
      <path
         inkscape:connector-curvature="0"
         id="path1370"
         style="fill:#ffffff;fill-opacity:1;fill-rule:nonzero;stroke:none"
         d="m 800.652,1701.624 h -1.094 v 4.337 h 1.094 z m -1.355,4.857 c -0.144,0 -0.261,-0.116 -0.261,-0.26 v -4.858 c 0,-0.143 0.117,-0.261 0.261,-0.261 h 1.615 c 0.144,0 0.261,0.118 0.261,0.261 v 4.858 c 0,0.144 -0.117,0.26 -0.261,0.26 z" />
    </g>
  </g>
</svg>
