<svg
   xmlns:dc="http://purl.org/dc/elements/1.1/"
   xmlns:cc="http://creativecommons.org/ns#"
   xmlns:rdf="http://www.w3.org/1999/02/22-rdf-syntax-ns#"
   xmlns:svg="http://www.w3.org/2000/svg"
   xmlns="http://www.w3.org/2000/svg"
   xmlns:sodipodi="http://sodipodi.sourceforge.net/DTD/sodipodi-0.dtd"
   xmlns:inkscape="http://www.inkscape.org/namespaces/inkscape"
   width="4.8358779mm"
   height="3.4374666mm"
   viewBox="0 0 4.8358779 3.4374666"
   version="1.1"
   id="svg6441"
   inkscape:version="0.92.2 (5c3e80d, 2017-08-06)"
   sodipodi:docname="mail.svg">
  <defs
     id="defs6435">
    <clipPath
       clipPathUnits="userSpaceOnUse"
       id="clipPath1486">
      <path
         d="M 0,2774.237 H 950 V 0 H 0 Z"
         id="path1484"
         inkscape:connector-curvature="0" />
    </clipPath>
  </defs>
  <sodipodi:namedview
     id="base"
     pagecolor="#ffffff"
     bordercolor="#666666"
     borderopacity="1.0"
     inkscape:pageopacity="0.0"
     inkscape:pageshadow="2"
     inkscape:zoom="0.35"
     inkscape:cx="-243.71849"
     inkscape:cy="-93.50401"
     inkscape:document-units="mm"
     inkscape:current-layer="layer1"
     showgrid="false"
     inkscape:window-width="1366"
     inkscape:window-height="705"
     inkscape:window-x="1912"
     inkscape:window-y="481"
     inkscape:window-maximized="1" />
  <g
     inkscape:label="Layer 1"
     inkscape:groupmode="layer"
     id="layer1"
     transform="translate(-47.474923,-120.65626)">
    <g
       transform="matrix(0.35277777,0,0,-0.35277777,-193.93916,676.114)"
       id="g1480">
      <g
         id="g1482"
         clip-path="url(#clipPath1486)">
        <g
           id="g1488"
           transform="translate(695.4216,1567.0009)">
          <path
             d="m 0,0 c -0.054,0 -0.108,0.02 -0.151,0.06 l -2.543,2.384 c -0.088,0.085 -0.093,0.223 -0.011,0.314 0.085,0.089 0.225,0.093 0.313,0.009 L 0.153,0.382 C 0.241,0.298 0.246,0.157 0.162,0.068 0.119,0.022 0.06,0 0,0"
             style="fill:#ffffff;fill-opacity:1;fill-rule:nonzero;stroke:none"
             id="path1490"
             inkscape:connector-curvature="0" />
        </g>
        <g
           id="g1492"
           transform="translate(686.9328,1567.0009)">
          <path
             d="m 0,0 c -0.061,0 -0.119,0.022 -0.162,0.068 -0.085,0.089 -0.08,0.23 0.009,0.314 L 2.392,2.767 C 2.482,2.851 2.623,2.847 2.704,2.758 2.789,2.667 2.784,2.529 2.696,2.444 L 0.151,0.06 C 0.108,0.02 0.054,0 0,0"
             style="fill:#ffffff;fill-opacity:1;fill-rule:nonzero;stroke:none"
             id="path1494"
             inkscape:connector-curvature="0" />
        </g>
        <g
           id="g1496"
           transform="translate(685.4284,1574.0839)">
          <path
             d="m 0,0 c -0.365,0 -0.663,-0.298 -0.663,-0.662 v -7.535 c 0,-0.367 0.298,-0.662 0.663,-0.662 h 11.498 c 0.366,0 0.662,0.295 0.662,0.662 v 7.535 C 12.16,-0.298 11.864,0 11.498,0 Z M 11.498,-9.302 H 0 c -0.609,0 -1.105,0.493 -1.105,1.105 v 7.535 c 0,0.608 0.496,1.104 1.105,1.104 h 11.498 c 0.608,0 1.105,-0.496 1.105,-1.104 v -7.535 c 0,-0.612 -0.497,-1.105 -1.105,-1.105"
             style="fill:#ffffff;fill-opacity:1;fill-rule:nonzero;stroke:none"
             id="path1498"
             inkscape:connector-curvature="0" />
        </g>
        <g
           id="g1500"
           transform="translate(691.1779,1568.5428)">
          <path
             d="m 0,0 c -0.295,0 -0.589,0.098 -0.811,0.292 l -5.677,4.951 c -0.093,0.08 -0.101,0.22 -0.021,0.313 0.08,0.092 0.219,0.099 0.312,0.021 l 5.675,-4.951 c 0.283,-0.245 0.76,-0.245 1.043,0 L 6.188,5.569 C 6.281,5.648 6.419,5.641 6.501,5.548 6.581,5.455 6.572,5.316 6.479,5.236 L 0.812,0.294 C 0.587,0.098 0.294,0 0,0"
             style="fill:#ffffff;fill-opacity:1;fill-rule:nonzero;stroke:none"
             id="path1502"
             inkscape:connector-curvature="0" />
        </g>
      </g>
    </g>
  </g>
</svg>
