<svg
   xmlns:dc="http://purl.org/dc/elements/1.1/"
   xmlns:cc="http://creativecommons.org/ns#"
   xmlns:rdf="http://www.w3.org/1999/02/22-rdf-syntax-ns#"
   xmlns:svg="http://www.w3.org/2000/svg"
   xmlns="http://www.w3.org/2000/svg"
   xmlns:sodipodi="http://sodipodi.sourceforge.net/DTD/sodipodi-0.dtd"
   xmlns:inkscape="http://www.inkscape.org/namespaces/inkscape"
   width="5.1420889mm"
   height="5.9855804mm"
   viewBox="0 0 5.1420889 5.9855804"
   version="1.1"
   id="svg6441"
   inkscape:version="0.92.2 (5c3e80d, 2017-08-06)"
   sodipodi:docname="money_bag.svg">
  <defs
     id="defs6435">
    <clipPath
       clipPathUnits="userSpaceOnUse"
       id="clipPath1486">
      <path
         d="M 0,2774.237 H 950 V 0 H 0 Z"
         id="path1484"
         inkscape:connector-curvature="0" />
    </clipPath>
  </defs>
  <sodipodi:namedview
     id="base"
     pagecolor="#ffffff"
     bordercolor="#666666"
     borderopacity="1.0"
     inkscape:pageopacity="0.0"
     inkscape:pageshadow="2"
     inkscape:zoom="0.35"
     inkscape:cx="-679.71545"
     inkscape:cy="186.37875"
     inkscape:document-units="mm"
     inkscape:current-layer="layer1"
     showgrid="false"
     inkscape:window-width="1366"
     inkscape:window-height="705"
     inkscape:window-x="1912"
     inkscape:window-y="481"
     inkscape:window-maximized="1" />
  <g
     inkscape:label="Layer 1"
     inkscape:groupmode="layer"
     id="layer1"
     transform="translate(-162.83245,-192.16046)">
    <g
       transform="matrix(0.35277777,0,0,-0.35277777,-78.428316,723.85572)"
       id="g7018">
      <g
         transform="translate(691.7487,1496.5184)"
         id="g1532">
        <path
           inkscape:connector-curvature="0"
           id="path1534"
           style="fill:#ffffff;fill-opacity:1;fill-rule:nonzero;stroke:none"
           d="m 0,0 h -0.97 c -0.353,0 -0.638,0.286 -0.638,0.639 0,0.352 0.285,0.638 0.638,0.638 h 1.707 c 0.233,0 0.423,0.191 0.423,0.423 0,0.234 -0.19,0.424 -0.423,0.424 h -0.8 v 0.589 c 0,0.232 -0.191,0.424 -0.424,0.424 -0.233,0 -0.423,-0.192 -0.423,-0.424 V 2.124 h -0.06 c -0.819,0 -1.486,-0.667 -1.486,-1.485 0,-0.819 0.667,-1.486 1.486,-1.486 H 0 c 0.353,0 0.638,-0.285 0.638,-0.637 0,-0.354 -0.285,-0.639 -0.638,-0.639 h -1.739 c -0.233,0 -0.424,-0.19 -0.424,-0.424 0,-0.232 0.191,-0.423 0.424,-0.423 h 0.832 v -0.603 c 0,-0.233 0.191,-0.423 0.424,-0.423 0.233,0 0.423,0.19 0.423,0.423 v 0.603 h 0.081 c 0.812,0.011 1.464,0.674 1.464,1.486 C 1.485,-0.667 0.818,0 0,0" />
      </g>
      <g
         transform="translate(695.1808,1491.0477)"
         id="g1536">
        <path
           inkscape:connector-curvature="0"
           id="path1538"
           style="fill:#ffffff;fill-opacity:1;fill-rule:nonzero;stroke:none"
           d="m 0,0 h -8.007 c -1.345,0 -2.438,1.093 -2.438,2.438 0,2.26 0.829,4.405 2.459,6.374 1.03,1.245 2.077,2.017 2.395,2.243 h 3.168 c 0.32,-0.222 1.365,-0.998 2.395,-2.243 C 1.605,6.843 2.431,4.702 2.431,2.438 2.438,1.093 1.344,0 0,0 m -7.337,14.688 c 0.409,0.353 0.8,0.508 1.27,0.508 0.501,0 1.065,-0.169 1.817,-0.448 0.154,-0.056 0.32,-0.084 0.49,-0.084 0.412,0 0.807,0.162 1.185,0.32 0.364,0.153 0.709,0.297 1.044,0.297 0.162,0 0.391,-0.028 0.681,-0.233 L -2.543,11.901 H -5.492 Z M 2.444,6.431 C 2,7.453 1.386,8.444 0.61,9.372 c -0.938,1.129 -1.873,1.884 -2.349,2.233 l 1.799,3.337 c 0.088,0.166 0.06,0.371 -0.078,0.501 -0.465,0.455 -0.959,0.677 -1.509,0.677 -0.505,0 -0.967,-0.19 -1.369,-0.359 -0.317,-0.131 -0.618,-0.258 -0.861,-0.258 -0.074,0 -0.137,0.011 -0.201,0.035 -0.839,0.308 -1.485,0.498 -2.109,0.498 -0.79,0 -1.464,-0.317 -2.124,-0.995 C -8.329,14.9 -8.35,14.678 -8.24,14.512 L -6.3,11.58 C -6.78,11.225 -7.697,10.477 -8.618,9.372 -9.39,8.444 -10.007,7.453 -10.452,6.431 c -0.557,-1.288 -0.84,-2.632 -0.84,-3.993 0,-1.81 1.475,-3.285 3.285,-3.285 H 0 c 1.81,0 3.284,1.475 3.284,3.285 0,1.361 -0.282,2.705 -0.84,3.993" />
      </g>
    </g>
  </g>
</svg>
