<svg
   xmlns:dc="http://purl.org/dc/elements/1.1/"
   xmlns:cc="http://creativecommons.org/ns#"
   xmlns:rdf="http://www.w3.org/1999/02/22-rdf-syntax-ns#"
   xmlns:svg="http://www.w3.org/2000/svg"
   xmlns="http://www.w3.org/2000/svg"
   xmlns:sodipodi="http://sodipodi.sourceforge.net/DTD/sodipodi-0.dtd"
   xmlns:inkscape="http://www.inkscape.org/namespaces/inkscape"
   width="3.976042mm"
   height="3.9819491mm"
   viewBox="0 0 3.976042 3.9819491"
   version="1.1"
   id="svg4145"
   inkscape:version="0.92.2 (5c3e80d, 2017-08-06)"
   sodipodi:docname="phone.svg">

  <g
     inkscape:label="Layer 1"
     inkscape:groupmode="layer"
     id="layer1"
     transform="translate(-100.06555,-119.62807)">
    <g
       transform="matrix(0.35277777,0,0,-0.35277777,65.28782,493.67623)"
       id="g4706">
      <g
         transform="translate(108.3476,1050.7936)"
         id="g3058">
        <path
           inkscape:connector-curvature="0"
           id="path3060"
           style="fill:#000000;fill-opacity:1;fill-rule:nonzero;stroke:none"
           d="m 0,0 c -0.002,0 -0.002,-0.003 0,0 -0.093,-0.101 -0.188,-0.191 -0.291,-0.291 -0.155,-0.147 -0.312,-0.303 -0.459,-0.477 -0.241,-0.256 -0.525,-0.378 -0.896,-0.378 -0.036,0 -0.074,0 -0.11,0.002 -0.707,0.045 -1.365,0.322 -1.858,0.557 -1.348,0.653 -2.532,1.58 -3.516,2.754 -0.812,0.979 -1.356,1.885 -1.715,2.856 -0.222,0.594 -0.303,1.056 -0.267,1.492 0.024,0.279 0.131,0.509 0.329,0.708 l 0.812,0.812 c 0.117,0.11 0.241,0.169 0.362,0.169 0.15,0 0.272,-0.091 0.348,-0.167 L -7.254,8.03 c 0.145,-0.135 0.284,-0.276 0.429,-0.426 0.074,-0.077 0.15,-0.153 0.226,-0.231 l 0.651,-0.65 c 0.252,-0.253 0.252,-0.487 0,-0.74 C -6.018,5.915 -6.084,5.846 -6.153,5.779 -6.354,5.574 -6.544,5.384 -6.751,5.197 -6.756,5.193 -6.761,5.19 -6.763,5.186 -6.968,4.98 -6.93,4.781 -6.887,4.646 L -6.88,4.623 c 0.169,-0.409 0.407,-0.795 0.769,-1.255 l 0.003,-0.002 c 0.657,-0.81 1.351,-1.441 2.115,-1.926 0.098,-0.061 0.198,-0.111 0.293,-0.159 0.086,-0.043 0.167,-0.083 0.236,-0.126 0.01,-0.005 0.019,-0.011 0.029,-0.016 0.081,-0.041 0.157,-0.06 0.236,-0.06 0.197,0 0.321,0.124 0.362,0.164 l 0.814,0.815 c 0.081,0.081 0.21,0.178 0.36,0.178 0.148,0 0.269,-0.092 0.343,-0.173 L -0.002,0.745 C 0.243,0.502 0.243,0.252 0,0 m -0.853,2.508 c -0.231,0.241 -0.51,0.369 -0.805,0.369 -0.293,0 -0.574,-0.126 -0.815,-0.366 L -3.226,1.76 c -0.062,0.034 -0.124,0.064 -0.183,0.095 -0.086,0.043 -0.167,0.083 -0.236,0.126 -0.705,0.449 -1.346,1.033 -1.96,1.788 -0.298,0.376 -0.498,0.693 -0.644,1.014 0.196,0.179 0.377,0.364 0.553,0.543 0.067,0.067 0.134,0.136 0.2,0.203 0.5,0.5 0.5,1.148 0,1.649 l -0.65,0.65 c -0.074,0.073 -0.15,0.15 -0.222,0.226 -0.143,0.147 -0.293,0.3 -0.448,0.443 -0.231,0.229 -0.507,0.351 -0.798,0.351 -0.29,0 -0.571,-0.122 -0.81,-0.351 L -8.428,8.492 -9.239,7.675 C -9.543,7.37 -9.717,6.999 -9.755,6.567 -9.813,5.872 -9.608,5.224 -9.45,4.8 c 0.386,-1.041 0.962,-2.006 1.822,-3.04 1.044,-1.245 2.299,-2.23 3.733,-2.923 0.548,-0.26 1.279,-0.566 2.096,-0.619 0.05,-0.002 0.103,-0.005 0.15,-0.005 0.551,0 1.013,0.197 1.375,0.591 0.002,0.005 0.007,0.007 0.01,0.011 0.123,0.151 0.266,0.287 0.416,0.432 0.103,0.098 0.208,0.2 0.31,0.307 0.236,0.246 0.36,0.531 0.36,0.825 0,0.295 -0.126,0.578 -0.367,0.816 z" />
      </g>
      <g
         transform="translate(104.674,1057.609)"
         id="g3062">
        <path
           inkscape:connector-curvature="0"
           id="path3064"
           style="fill:#000000;fill-opacity:1;fill-rule:nonzero;stroke:none"
           d="m 0,0 c 0.624,-0.105 1.191,-0.4 1.644,-0.854 0.452,-0.452 0.745,-1.019 0.853,-1.643 0.026,-0.157 0.162,-0.267 0.316,-0.267 0.02,0 0.036,0.003 0.055,0.005 0.177,0.029 0.293,0.196 0.265,0.371 -0.129,0.756 -0.486,1.445 -1.032,1.99 C 1.556,0.147 0.867,0.505 0.112,0.634 -0.064,0.662 -0.229,0.545 -0.26,0.371 -0.291,0.197 -0.176,0.028 0,0" />
      </g>
      <g
         transform="translate(109.8483,1055.3151)"
         id="g3066">
        <path
           inkscape:connector-curvature="0"
           id="path3068"
           style="fill:#000000;fill-opacity:1;fill-rule:nonzero;stroke:none"
           d="M 0,0 C -0.212,1.243 -0.798,2.375 -1.698,3.275 -2.599,4.176 -3.73,4.762 -4.974,4.974 -5.148,5.005 -5.312,4.886 -5.343,4.712 -5.372,4.535 -5.255,4.371 -5.079,4.34 c 1.11,-0.189 2.123,-0.715 2.928,-1.518 0.805,-0.804 1.329,-1.817 1.517,-2.927 0.027,-0.158 0.162,-0.267 0.317,-0.267 0.019,0 0.036,0.002 0.055,0.005 C -0.088,-0.341 0.031,-0.174 0,0" />
      </g>
    </g>
  </g>
</svg>
