<svg
   xmlns:dc="http://purl.org/dc/elements/1.1/"
   xmlns:cc="http://creativecommons.org/ns#"
   xmlns:rdf="http://www.w3.org/1999/02/22-rdf-syntax-ns#"
   xmlns:svg="http://www.w3.org/2000/svg"
   xmlns="http://www.w3.org/2000/svg"
   xmlns:sodipodi="http://sodipodi.sourceforge.net/DTD/sodipodi-0.dtd"
   xmlns:inkscape="http://www.inkscape.org/namespaces/inkscape"
   width="31.620176mm"
   height="31.620529mm"
   viewBox="0 0 31.620176 31.620529"
   version="1.1"
   id="svg4650"
   inkscape:version="0.92.2 (5c3e80d, 2017-08-06)"
   sodipodi:docname="play_single.svg">
  <defs
     id="defs4644" />
  <sodipodi:namedview
     id="base"
     pagecolor="#ffffff"
     bordercolor="#666666"
     borderopacity="1.0"
     inkscape:pageopacity="0.0"
     inkscape:pageshadow="2"
     inkscape:zoom="0.35"
     inkscape:cx="-313.10248"
     inkscape:cy="-208.8161"
     inkscape:document-units="mm"
     inkscape:current-layer="layer1"
     showgrid="false"
     inkscape:window-width="1366"
     inkscape:window-height="705"
     inkscape:window-x="1912"
     inkscape:window-y="481"
     inkscape:window-maximized="1" />
  <g
     inkscape:label="Layer 1"
     inkscape:groupmode="layer"
     id="layer1"
     transform="translate(-65.832769,-61.963543)">
    <g
       transform="matrix(0.35277777,0,0,-0.35277777,-35.281041,682.97261)"
       id="g4629">
      <g
         transform="translate(322.47303,1695.9468)"
         id="g1430">
        <path
           inkscape:connector-curvature="0"
           id="path1432"
           style="fill:#ffffff;fill-opacity:1;fill-rule:nonzero;stroke:none"
           d="M 0,0 V 39.154 L 28.718,19.577 Z M 32.211,20.81 -0.648,43.218 c -0.461,0.313 -1.051,0.344 -1.54,0.088 C -2.676,43.05 -2.982,42.54 -2.982,41.985 V -2.831 c 0,-0.555 0.306,-1.065 0.794,-1.32 0.22,-0.118 0.459,-0.176 0.692,-0.176 0.301,0 0.592,0.088 0.848,0.264 l 32.859,22.408 c 0.41,0.276 0.658,0.735 0.658,1.232 0,0.497 -0.248,0.956 -0.658,1.233" />
      </g>
      <g
         transform="translate(331.43783,1673.6997)"
         id="g1434">
        <path
           inkscape:connector-curvature="0"
           id="path1436"
           style="fill:#ffffff;fill-opacity:1;fill-rule:nonzero;stroke:none"
           d="m 0,0 c -23.065,0 -41.824,18.759 -41.824,41.824 0,23.066 18.759,41.824 41.824,41.824 23.065,0 41.825,-18.758 41.825,-41.824 C 41.825,18.759 23.065,0 0,0 m 0,86.641 c -24.712,0 -44.816,-20.105 -44.816,-44.817 0,-24.713 20.104,-44.816 44.816,-44.816 24.712,0 44.816,20.103 44.816,44.816 0,24.712 -20.104,44.817 -44.816,44.817" />
      </g>
    </g>
  </g>
</svg>
