<svg
   xmlns:dc="http://purl.org/dc/elements/1.1/"
   xmlns:cc="http://creativecommons.org/ns#"
   xmlns:rdf="http://www.w3.org/1999/02/22-rdf-syntax-ns#"
   xmlns:svg="http://www.w3.org/2000/svg"
   xmlns="http://www.w3.org/2000/svg"
   xmlns:sodipodi="http://sodipodi.sourceforge.net/DTD/sodipodi-0.dtd"
   xmlns:inkscape="http://www.inkscape.org/namespaces/inkscape"
   width="31.75mm"
   height="31.75mm"
   viewBox="0 0 31.75 31.75"
   version="1.1"
   id="svg5240"
   inkscape:version="0.92.2 (5c3e80d, 2017-08-06)"
   sodipodi:docname="profile_bg.svg">
  <defs
     id="defs5234" />
  <sodipodi:namedview
     id="base"
     pagecolor="#ffffff"
     bordercolor="#666666"
     borderopacity="1.0"
     inkscape:pageopacity="0.0"
     inkscape:pageshadow="2"
     inkscape:zoom="0.98994949"
     inkscape:cx="-79.14707"
     inkscape:cy="21.464632"
     inkscape:document-units="mm"
     inkscape:current-layer="layer1"
     showgrid="false"
     inkscape:window-width="1366"
     inkscape:window-height="705"
     inkscape:window-x="1912"
     inkscape:window-y="481"
     inkscape:window-maximized="1" />
  <g
     inkscape:label="Layer 1"
     inkscape:groupmode="layer"
     id="layer1"
     transform="translate(-102.05358,-119.35119)">
    <g
       transform="matrix(0.35277777,0,0,-0.35277777,-146.64164,766.89715)"
       id="g5217">
      <g
         transform="translate(779.79383,1760.7324)"
         id="g1438">
        <path
           inkscape:connector-curvature="0"
           id="path1440"
           style="fill:#ffffff;fill-opacity:1;fill-rule:nonzero;stroke:none"
           d="m 0,0 c -7.968,-7.968 -18.562,-12.355 -29.831,-12.355 -11.269,0 -21.863,4.387 -29.831,12.355 -7.968,7.967 -12.357,18.562 -12.357,29.831 0,11.269 4.389,21.862 12.357,29.831 7.969,7.969 18.563,12.357 29.831,12.357 C -18.562,72.019 -7.968,67.631 0,59.662 7.968,51.694 12.356,41.101 12.356,29.831 12.356,18.562 7.968,7.967 0,0 m 1.989,61.65 c -8.499,8.5 -19.801,13.181 -31.82,13.181 -12.02,0 -23.319,-4.681 -31.819,-13.181 -8.5,-8.5 -13.181,-19.798 -13.181,-31.819 0,-12.02 4.681,-23.321 13.181,-31.82 8.499,-8.499 19.799,-13.18 31.819,-13.18 12.02,0 23.321,4.681 31.82,13.18 8.499,8.499 13.18,19.8 13.18,31.82 0,12.021 -4.681,23.32 -13.18,31.819" />
      </g>
      <g
         transform="translate(780.55503,1815.3545)"
         id="g1442">
        <path
           inkscape:connector-curvature="0"
           id="path1444"
           style="fill:#ffffff;fill-opacity:1;fill-rule:nonzero;stroke:none"
           d="m 0,0 c -0.489,0.604 -1.375,0.695 -1.979,0.206 -0.603,-0.489 -0.695,-1.375 -0.205,-1.977 5.258,-6.482 8.154,-14.656 8.154,-23.02 0,-9.767 -3.803,-18.949 -10.709,-25.855 -6.905,-6.905 -16.087,-10.707 -25.853,-10.707 -9.011,0 -17.668,3.306 -24.374,9.309 -0.58,0.518 -1.468,0.469 -1.987,-0.11 -0.517,-0.578 -0.468,-1.468 0.11,-1.986 7.224,-6.464 16.547,-10.025 26.251,-10.025 10.517,0 20.406,4.095 27.842,11.531 7.437,7.437 11.532,17.325 11.532,27.843 C 8.782,-15.784 5.663,-6.98 0,0" />
      </g>
      <g
         transform="translate(713.39983,1790.5635)"
         id="g1446">
        <path
           inkscape:connector-curvature="0"
           id="path1448"
           style="fill:#ffffff;fill-opacity:1;fill-rule:nonzero;stroke:none"
           d="m 0,0 c 0,20.161 16.402,36.563 36.563,36.563 9.01,0 17.666,-3.306 24.374,-9.309 0.578,-0.519 1.468,-0.469 1.985,0.11 0.518,0.578 0.469,1.468 -0.109,1.986 C 55.589,35.814 46.266,39.375 36.563,39.375 26.046,39.375 16.159,35.279 8.721,27.842 1.284,20.405 -2.812,10.518 -2.812,0 c 0,-9.007 3.119,-17.811 8.782,-24.791 0.279,-0.343 0.684,-0.521 1.093,-0.521 0.312,0 0.625,0.103 0.886,0.315 0.602,0.489 0.695,1.375 0.206,1.977 C 2.896,-16.538 0,-8.362 0,0" />
      </g>
    </g>
  </g>
</svg>
