<svg
   xmlns:dc="http://purl.org/dc/elements/1.1/"
   xmlns:cc="http://creativecommons.org/ns#"
   xmlns:rdf="http://www.w3.org/1999/02/22-rdf-syntax-ns#"
   xmlns:svg="http://www.w3.org/2000/svg"
   xmlns="http://www.w3.org/2000/svg"
   xmlns:sodipodi="http://sodipodi.sourceforge.net/DTD/sodipodi-0.dtd"
   xmlns:inkscape="http://www.inkscape.org/namespaces/inkscape"
   width="16"
   height="16"
   viewBox="0 0 4.50286 4.4253549"
   version="1.1"
   id="svg37475"
   inkscape:version="0.92.2 (5c3e80d, 2017-08-06)"
   sodipodi:docname="small_cal.svg">
  <defs
     id="defs37469" />
  <sodipodi:namedview
     id="base"
     pagecolor="#ffffff"
     bordercolor="#666666"
     borderopacity="1.0"
     inkscape:pageopacity="0.0"
     inkscape:pageshadow="2"
     inkscape:zoom="15.839192"
     inkscape:cx="8.0308636"
     inkscape:cy="11.552038"
     inkscape:document-units="mm"
     inkscape:current-layer="layer1"
     showgrid="false"
     inkscape:window-width="1366"
     inkscape:window-height="705"
     inkscape:window-x="1672"
     inkscape:window-y="274"
     inkscape:window-maximized="1" />
  <g
     inkscape:label="Layer 1"
     inkscape:groupmode="layer"
     id="layer1"
     transform="translate(-145.08543,-142.50155)">
    <path
       inkscape:connector-curvature="0"
       id="path25329"
       style="display:inline;fill:#fefefe;fill-opacity:1;fill-rule:nonzero;stroke:none;stroke-width:0.35277775"
       d="M 149.43306,146.77172 H 145.241 v -2.94993 h 4.19206 z m -1.0167,-3.95958 c -0.0367,-0.17709 -0.19297,-0.31044 -0.381,-0.31044 -0.0427,0 -0.0769,0.0346 -0.0769,0.0776 0,0.043 0.0342,0.078 0.0769,0.078 0.12876,0 0.23354,0.10406 0.23354,0.23248 0,0.12876 -0.10478,0.23283 -0.23354,0.23283 -0.0427,0 -0.0769,0.0349 -0.0769,0.0776 0,0.043 0.0342,0.0776 0.0769,0.0776 0.18803,0 0.34431,-0.13335 0.381,-0.31009 h 1.0167 v 0.6985 h -4.1917 v -0.6985 h 1.31939 c 0.0427,0 0.0773,-0.0353 0.0773,-0.078 0,-0.0427 -0.0346,-0.0776 -0.0773,-0.0776 h -0.14147 c 0.0325,-0.0903 0.11748,-0.15486 0.21872,-0.15486 0.12877,0 0.23319,0.10406 0.23319,0.23248 0,0.12876 -0.10442,0.23283 -0.23319,0.23283 -0.0427,0 -0.0773,0.0349 -0.0773,0.0776 0,0.043 0.0346,0.0776 0.0773,0.0776 0.21449,0 0.38841,-0.17392 0.38841,-0.38805 0,-0.21414 -0.17392,-0.38806 -0.38841,-0.38806 -0.18697,0 -0.34395,0.13335 -0.37994,0.31044 h -1.17263 v 4.1148 h 4.50286 v -4.1148 z" />
    <g
       style="display:inline"
       transform="matrix(0.35277777,0,0,-0.35277777,146.04013,144.80792)"
       id="g25331">
      <path
         inkscape:connector-curvature="0"
         id="path25333"
         style="fill:#fefefe;fill-opacity:1;fill-rule:nonzero;stroke:none"
         d="m 0,0 c 0.043,-0.043 0.099,-0.064 0.154,-0.064 0.058,0 0.114,0.021 0.157,0.064 L 1.255,0.944 V -4.025 H 0.596 c -0.122,0 -0.221,-0.1 -0.221,-0.221 0,-0.121 0.099,-0.22 0.221,-0.22 h 1.759 c 0.122,0 0.22,0.099 0.22,0.22 0,0.121 -0.098,0.221 -0.22,0.221 H 1.695 V 1.477 C 1.695,1.504 1.689,1.533 1.679,1.56 1.657,1.614 1.614,1.657 1.56,1.68 1.506,1.701 1.445,1.701 1.392,1.68 1.364,1.667 1.34,1.651 1.319,1.631 L 0,0.312 C -0.086,0.226 -0.086,0.086 0,0" />
    </g>
    <g
       style="display:inline"
       transform="matrix(0.35277777,0,0,-0.35277777,148.03551,145.14122)"
       id="g25335">
      <path
         inkscape:connector-curvature="0"
         id="path25337"
         style="fill:#fefefe;fill-opacity:1;fill-rule:nonzero;stroke:none"
         d="m 0,0 c -0.606,0 -1.101,0.494 -1.101,1.101 0,0.606 0.495,1.1 1.101,1.1 0.607,0 1.101,-0.494 1.101,-1.1 C 1.101,0.494 0.607,0 0,0 m 0,-3.081 c -0.606,0 -1.101,0.494 -1.101,1.101 0,0.121 -0.097,0.219 -0.218,0.219 -0.121,0 -0.221,-0.098 -0.221,-0.219 0,-0.85 0.691,-1.541 1.54,-1.541 0.85,0 1.541,0.691 1.541,1.541 V 1.101 C 1.541,1.95 0.85,2.64 0,2.64 -0.849,2.64 -1.54,1.95 -1.54,1.101 -1.54,0.25 -0.849,-0.44 0,-0.44 c 0.431,0 0.821,0.178 1.101,0.464 V -1.98 C 1.101,-2.587 0.607,-3.081 0,-3.081" />
    </g>
    <g
       style="display:inline"
       transform="matrix(0.35277777,0,0,-0.35277777,147.10432,142.65712)"
       id="g25339">
      <path
         inkscape:connector-curvature="0"
         id="path25341"
         style="fill:#fefefe;fill-opacity:1;fill-rule:nonzero;stroke:none"
         d="m 0,0 c 0.364,0 0.659,-0.295 0.659,-0.66 0,-0.364 -0.295,-0.659 -0.659,-0.659 -0.122,0 -0.221,-0.099 -0.221,-0.221 0,-0.121 0.099,-0.22 0.221,-0.22 0.605,0 1.1,0.493 1.1,1.1 0,0.608 -0.495,1.101 -1.1,1.101 -0.122,0 -0.221,-0.099 -0.221,-0.22 C -0.221,0.099 -0.122,0 0,0" />
    </g>
    <g
       style="display:inline"
       transform="matrix(0.35277777,0,0,-0.35277777,147.57009,142.65712)"
       id="g25343">
      <path
         inkscape:connector-curvature="0"
         id="path25345"
         style="fill:#fefefe;fill-opacity:1;fill-rule:nonzero;stroke:none"
         d="m 0,0 c 0.363,0 0.66,-0.295 0.66,-0.66 0,-0.364 -0.297,-0.659 -0.66,-0.659 -0.121,0 -0.221,-0.099 -0.221,-0.221 0,-0.121 0.1,-0.22 0.221,-0.22 0.606,0 1.101,0.493 1.101,1.1 0,0.608 -0.495,1.101 -1.101,1.101 -0.121,0 -0.221,-0.099 -0.221,-0.22 C -0.221,0.099 -0.121,0 0,0" />
    </g>
  </g>
</svg>
