<svg
   xmlns:dc="http://purl.org/dc/elements/1.1/"
   xmlns:cc="http://creativecommons.org/ns#"
   xmlns:rdf="http://www.w3.org/1999/02/22-rdf-syntax-ns#"
   xmlns:svg="http://www.w3.org/2000/svg"
   xmlns="http://www.w3.org/2000/svg"
   xmlns:sodipodi="http://sodipodi.sourceforge.net/DTD/sodipodi-0.dtd"
   xmlns:inkscape="http://www.inkscape.org/namespaces/inkscape"
   width="12.347222mm"
   height="12.347222mm"
   viewBox="0 0 12.347222 12.347223"
   version="1.1"
   id="svg37475"
   inkscape:version="0.92.2 (5c3e80d, 2017-08-06)"
   sodipodi:docname="tube_foot.svg">
  <defs
     id="defs37469">
    <clipPath
       id="clipPath25359"
       clipPathUnits="userSpaceOnUse">
      <path
         inkscape:connector-curvature="0"
         id="path25357"
         d="M 0,3087.842 H 1909.904 V 0 H 0 Z" />
    </clipPath>
  </defs>
  <sodipodi:namedview
     id="base"
     pagecolor="#ffffff"
     bordercolor="#666666"
     borderopacity="1.0"
     inkscape:pageopacity="0.0"
     inkscape:pageshadow="2"
     inkscape:zoom="1.979899"
     inkscape:cx="-4.9749222"
     inkscape:cy="10.628899"
     inkscape:document-units="mm"
     inkscape:current-layer="layer1"
     showgrid="false"
     inkscape:window-width="1366"
     inkscape:window-height="705"
     inkscape:window-x="1672"
     inkscape:window-y="274"
     inkscape:window-maximized="1" />
  <g
     inkscape:label="Layer 1"
     inkscape:groupmode="layer"
     id="layer1"
     transform="translate(-187.93399,-142.98072)">
    <g
       style="display:inline"
       id="g37377"
       transform="matrix(0.35277777,0,0,-0.35277777,-171.50094,177.26709)">
      <g
         id="g25531"
         transform="translate(1047.9717,68.0877)">
        <path
           d="m 0,0 c -3.099,-3.099 -7.219,-4.805 -11.601,-4.805 -4.382,0 -8.503,1.706 -11.601,4.805 -3.099,3.099 -4.805,7.219 -4.805,11.602 0,4.381 1.706,8.502 4.805,11.6 3.098,3.099 7.22,4.806 11.601,4.806 4.382,0 8.502,-1.707 11.601,-4.806 3.099,-3.098 4.806,-7.219 4.806,-11.6 C 4.806,7.219 3.099,3.099 0,0 m 0.773,23.976 c -3.304,3.305 -7.7,5.126 -12.374,5.126 -4.674,0 -9.069,-1.821 -12.374,-5.126 -3.305,-3.306 -5.126,-7.701 -5.126,-12.374 0,-4.675 1.821,-9.07 5.126,-12.375 3.305,-3.305 7.7,-5.125 12.374,-5.125 4.674,0 9.07,1.82 12.374,5.125 3.305,3.305 5.126,7.7 5.126,12.375 0,4.673 -1.821,9.069 -5.126,12.374"
           style="fill:#ffffff;fill-opacity:1;fill-rule:nonzero;stroke:none"
           id="path25533"
           inkscape:connector-curvature="0" />
      </g>
      <g
         id="g25535"
         transform="translate(1048.2676,89.3299)">
        <path
           d="m 0,0 c -0.189,0.235 -0.534,0.271 -0.769,0.08 -0.235,-0.19 -0.27,-0.534 -0.08,-0.768 2.044,-2.521 3.171,-5.701 3.171,-8.953 0,-3.798 -1.479,-7.369 -4.165,-10.054 -2.684,-2.686 -6.256,-4.164 -10.053,-4.164 -3.505,0 -6.872,1.285 -9.48,3.62 -0.225,0.202 -0.57,0.181 -0.772,-0.043 -0.202,-0.225 -0.182,-0.571 0.043,-0.772 2.809,-2.514 6.434,-3.899 10.209,-3.899 4.089,0 7.935,1.593 10.827,4.484 2.892,2.892 4.484,6.738 4.484,10.828 C 3.415,-6.139 2.202,-2.715 0,0"
           style="fill:#ffffff;fill-opacity:1;fill-rule:nonzero;stroke:none"
           id="path25537"
           inkscape:connector-curvature="0" />
      </g>
      <g
         id="g25539"
         transform="translate(1022.1514,79.6893)">
        <path
           d="m 0,0 c 0,7.84 6.379,14.219 14.22,14.219 3.504,0 6.87,-1.286 9.478,-3.62 0.225,-0.202 0.571,-0.183 0.772,0.043 0.202,0.224 0.182,0.57 -0.042,0.771 -2.81,2.515 -6.435,3.9 -10.208,3.9 -4.09,0 -7.936,-1.593 -10.827,-4.486 C 0.5,7.935 -1.093,4.09 -1.093,0 c 0,-3.503 1.213,-6.927 3.415,-9.641 0.109,-0.133 0.266,-0.203 0.425,-0.203 0.121,0 0.243,0.04 0.345,0.123 0.234,0.19 0.27,0.534 0.08,0.769 C 1.127,-6.432 0,-3.252 0,0"
           style="fill:#ffffff;fill-opacity:1;fill-rule:nonzero;stroke:none"
           id="path25541"
           inkscape:connector-curvature="0" />
      </g>
      <g
         id="g25543"
         transform="translate(1031.7139,88.1238)">
        <path
           d="M 0,0 C -0.223,-0.126 -0.36,-0.363 -0.36,-0.619 V -16.25 c 0,-0.394 0.319,-0.712 0.713,-0.712 0.392,0 0.711,0.318 0.711,0.712 v 14.378 l 10.545,-6.277 -7.755,-4.997 c -0.33,-0.212 -0.425,-0.654 -0.211,-0.984 0.211,-0.331 0.653,-0.427 0.983,-0.213 l 8.722,5.618 c 0.206,0.134 0.33,0.366 0.326,0.612 -0.005,0.246 -0.137,0.473 -0.348,0.599 L 0.716,-0.007 C 0.496,0.124 0.223,0.127 0,0"
           style="fill:#ffffff;fill-opacity:1;fill-rule:nonzero;stroke:none"
           id="path25545"
           inkscape:connector-curvature="0" />
      </g>
    </g>
  </g>
</svg>
