<svg
   xmlns:dc="http://purl.org/dc/elements/1.1/"
   xmlns:cc="http://creativecommons.org/ns#"
   xmlns:rdf="http://www.w3.org/1999/02/22-rdf-syntax-ns#"
   xmlns:svg="http://www.w3.org/2000/svg"
   xmlns="http://www.w3.org/2000/svg"
   xmlns:sodipodi="http://sodipodi.sourceforge.net/DTD/sodipodi-0.dtd"
   xmlns:inkscape="http://www.inkscape.org/namespaces/inkscape"
   width="12.347222mm"
   height="12.347222mm"
   viewBox="0 0 12.347222 12.347223"
   version="1.1"
   id="svg37475"
   inkscape:version="0.92.2 (5c3e80d, 2017-08-06)"
   sodipodi:docname="twit_foot.svg">
  <defs
     id="defs37469">
    <clipPath
       id="clipPath25359"
       clipPathUnits="userSpaceOnUse">
      <path
         inkscape:connector-curvature="0"
         id="path25357"
         d="M 0,3087.842 H 1909.904 V 0 H 0 Z" />
    </clipPath>
  </defs>
  <sodipodi:namedview
     id="base"
     pagecolor="#ffffff"
     bordercolor="#666666"
     borderopacity="1.0"
     inkscape:pageopacity="0.0"
     inkscape:pageshadow="2"
     inkscape:zoom="1.979899"
     inkscape:cx="49.373662"
     inkscape:cy="61.441933"
     inkscape:document-units="mm"
     inkscape:current-layer="layer1"
     showgrid="false"
     inkscape:window-width="1366"
     inkscape:window-height="705"
     inkscape:window-x="1672"
     inkscape:window-y="274"
     inkscape:window-maximized="1" />
  <g
     inkscape:label="Layer 1"
     inkscape:groupmode="layer"
     id="layer1"
     transform="translate(-173.55426,-156.42501)">
    <g
       transform="matrix(0.35277777,0,0,-0.35277777,-147.07512,190.71138)"
       style="display:inline"
       id="g37263">
      <g
         id="g25491"
         transform="translate(937.9717,68.0877)">
        <path
           d="m 0,0 c -3.099,-3.099 -7.219,-4.805 -11.601,-4.805 -4.382,0 -8.503,1.706 -11.601,4.805 -3.099,3.099 -4.805,7.219 -4.805,11.602 0,4.381 1.706,8.502 4.805,11.6 3.099,3.099 7.219,4.806 11.601,4.806 4.382,0 8.502,-1.707 11.601,-4.806 3.099,-3.098 4.805,-7.219 4.805,-11.6 C 4.805,7.219 3.099,3.099 0,0 m 0.773,23.976 c -3.305,3.305 -7.7,5.126 -12.374,5.126 -4.674,0 -9.069,-1.821 -12.375,-5.126 -3.304,-3.306 -5.125,-7.7 -5.125,-12.374 0,-4.675 1.821,-9.07 5.125,-12.375 3.306,-3.305 7.701,-5.125 12.375,-5.125 4.674,0 9.069,1.82 12.374,5.125 3.305,3.305 5.126,7.7 5.126,12.375 0,4.674 -1.821,9.069 -5.126,12.374"
           style="fill:#ffffff;fill-opacity:1;fill-rule:nonzero;stroke:none"
           id="path25493"
           inkscape:connector-curvature="0" />
      </g>
      <g
         id="g25495"
         transform="translate(938.2676,89.3299)">
        <path
           d="m 0,0 c -0.19,0.234 -0.534,0.271 -0.77,0.08 -0.234,-0.19 -0.27,-0.534 -0.08,-0.768 2.045,-2.521 3.171,-5.701 3.171,-8.953 0,-3.798 -1.478,-7.369 -4.164,-10.054 -2.685,-2.686 -6.256,-4.164 -10.053,-4.164 -3.505,0 -6.872,1.286 -9.48,3.62 -0.226,0.201 -0.57,0.182 -0.772,-0.043 -0.202,-0.225 -0.182,-0.571 0.043,-0.772 2.809,-2.514 6.434,-3.899 10.209,-3.899 4.089,0 7.935,1.593 10.827,4.484 2.891,2.893 4.484,6.738 4.484,10.828 C 3.415,-6.138 2.202,-2.715 0,0"
           style="fill:#ffffff;fill-opacity:1;fill-rule:nonzero;stroke:none"
           id="path25497"
           inkscape:connector-curvature="0" />
      </g>
      <g
         id="g25499"
         transform="translate(912.1514,79.6893)">
        <path
           d="m 0,0 c 0,7.841 6.379,14.219 14.22,14.219 3.504,0 6.87,-1.285 9.478,-3.62 0.225,-0.202 0.571,-0.182 0.772,0.043 0.202,0.224 0.182,0.57 -0.042,0.771 -2.81,2.515 -6.435,3.9 -10.208,3.9 -4.09,0 -7.936,-1.593 -10.828,-4.486 C 0.5,7.936 -1.093,4.09 -1.093,0 c 0,-3.503 1.213,-6.927 3.415,-9.641 0.109,-0.133 0.266,-0.203 0.425,-0.203 0.121,0 0.243,0.04 0.345,0.123 0.234,0.19 0.27,0.534 0.08,0.769 C 1.127,-6.432 0,-3.252 0,0"
           style="fill:#ffffff;fill-opacity:1;fill-rule:nonzero;stroke:none"
           id="path25501"
           inkscape:connector-curvature="0" />
      </g>
      <g
         id="g25503"
         transform="translate(933.6114,82.8221)">
        <path
           d="m 0,0 c -0.149,-0.108 -0.235,-0.285 -0.226,-0.47 0.007,-0.135 0.01,-0.273 0.01,-0.423 0,-2.27 -0.879,-4.571 -2.412,-6.31 -1.223,-1.386 -3.418,-3.039 -6.937,-3.039 -1.077,0 -2.136,0.185 -3.138,0.543 1.197,0.216 2.317,0.718 3.292,1.483 0.182,0.143 0.255,0.384 0.181,0.604 -0.074,0.218 -0.277,0.369 -0.508,0.373 -0.963,0.017 -1.834,0.503 -2.361,1.266 0.275,0.018 0.548,0.062 0.815,0.134 0.245,0.067 0.412,0.292 0.404,0.546 -0.009,0.253 -0.19,0.468 -0.438,0.518 -1.09,0.22 -1.941,1.038 -2.237,2.068 0.292,-0.077 0.594,-0.122 0.897,-0.132 0.244,-0.008 0.464,0.147 0.539,0.379 0.074,0.233 -0.015,0.487 -0.217,0.623 -0.816,0.544 -1.304,1.457 -1.304,2.441 0,0.249 0.032,0.496 0.093,0.735 1.832,-1.893 4.327,-3.034 6.972,-3.166 0.173,-0.009 0.338,0.063 0.447,0.195 0.11,0.132 0.152,0.308 0.113,0.475 -0.05,0.216 -0.076,0.44 -0.076,0.668 0,1.615 1.316,2.929 2.932,2.929 0.806,0 1.588,-0.336 2.14,-0.924 0.129,-0.137 0.32,-0.198 0.503,-0.162 0.208,0.041 0.412,0.089 0.615,0.148 C -0.003,1.421 -0.109,1.347 -0.223,1.279 -0.443,1.147 -0.542,0.878 -0.459,0.634 -0.376,0.39 -0.134,0.237 0.123,0.268 0.212,0.277 0.301,0.29 0.389,0.304 0.264,0.198 0.134,0.097 0,0 M 2.511,1.054 C 2.646,1.256 2.631,1.522 2.475,1.709 2.317,1.896 2.058,1.955 1.835,1.857 1.821,1.851 1.808,1.845 1.793,1.839 1.922,2.069 2.028,2.313 2.109,2.568 2.179,2.785 2.107,3.021 1.93,3.163 1.752,3.305 1.505,3.321 1.31,3.205 0.758,2.878 0.168,2.638 -0.449,2.488 c -0.738,0.668 -1.709,1.046 -2.71,1.046 -2.22,0 -4.026,-1.805 -4.026,-4.023 0,-0.064 10e-4,-0.126 0.004,-0.19 -2.382,0.291 -4.582,1.498 -6.112,3.376 -0.113,0.139 -0.287,0.214 -0.467,0.2 -0.178,-0.014 -0.339,-0.115 -0.429,-0.27 -0.357,-0.611 -0.545,-1.312 -0.545,-2.023 0,-0.681 0.171,-1.336 0.482,-1.915 -0.084,-0.005 -0.166,-0.03 -0.241,-0.075 -0.167,-0.097 -0.27,-0.277 -0.27,-0.47 V -1.9 c 0,-1.205 0.541,-2.311 1.409,-3.057 -0.018,-0.017 -0.036,-0.034 -0.052,-0.053 -0.127,-0.144 -0.169,-0.344 -0.112,-0.528 0.374,-1.168 1.248,-2.073 2.343,-2.51 -0.888,-0.447 -1.87,-0.679 -2.892,-0.679 -0.258,0 -0.516,0.015 -0.767,0.044 -0.253,0.03 -0.492,-0.12 -0.578,-0.359 -0.085,-0.239 0.006,-0.507 0.22,-0.645 1.682,-1.079 3.628,-1.649 5.627,-1.649 3.927,0 6.386,1.855 7.757,3.41 1.706,1.937 2.686,4.5 2.686,7.033 0,0.063 0,0.123 -0.001,0.184 0.636,0.496 1.185,1.088 1.634,1.763"
           style="fill:#ffffff;fill-opacity:1;fill-rule:nonzero;stroke:none"
           id="path25505"
           inkscape:connector-curvature="0" />
      </g>
    </g>
  </g>
</svg>
