<svg
   xmlns:dc="http://purl.org/dc/elements/1.1/"
   xmlns:cc="http://creativecommons.org/ns#"
   xmlns:rdf="http://www.w3.org/1999/02/22-rdf-syntax-ns#"
   xmlns:svg="http://www.w3.org/2000/svg"
   xmlns="http://www.w3.org/2000/svg"
   xmlns:sodipodi="http://sodipodi.sourceforge.net/DTD/sodipodi-0.dtd"
   xmlns:inkscape="http://www.inkscape.org/namespaces/inkscape"
   width="137"
   height="68"
   viewBox="0 0 23.039846 11.41155"
   version="1.1"
   id="svg30835"
   inkscape:version="0.92.2 (5c3e80d, 2017-08-06)"
   sodipodi:docname="web_logo.svg">
  <defs
     id="defs30829" />
  <sodipodi:namedview
     id="base"
     pagecolor="#ffffff"
     bordercolor="#666666"
     borderopacity="1.0"
     inkscape:pageopacity="0.0"
     inkscape:pageshadow="2"
     inkscape:zoom="2.8"
     inkscape:cx="-11.69239"
     inkscape:cy="-13.496056"
     inkscape:document-units="mm"
     inkscape:current-layer="layer1"
     showgrid="false"
     inkscape:window-width="1680"
     inkscape:window-height="987"
     inkscape:window-x="-8"
     inkscape:window-y="-8"
     inkscape:window-maximized="1" />
  <g
     inkscape:label="Layer 1"
     inkscape:groupmode="layer"
     id="layer1"
     transform="translate(-142.69436,-95.502578)">
    <g
       style="display:inline"
       id="g30805"
       transform="matrix(0.35277777,0,0,-0.35277777,-61.071418,1171.4244)">
      <g
         id="g23699"
         transform="translate(584.5098,3030.4583)">
        <path
           d="m 0,0 h -0.271 l -6.635,15.149 h 3.64 l 3.412,-7.99 3.579,7.99 h 3.411 z"
           style="fill:#fefefe;fill-opacity:1;fill-rule:nonzero;stroke:none"
           id="path23701"
           inkscape:connector-curvature="0" />
      </g>
      <path
         d="m 596.398,3045.604 h 3.495 v -14.644 h -3.495 z"
         style="fill:#fefefe;fill-opacity:1;fill-rule:nonzero;stroke:none"
         id="path23703"
         inkscape:connector-curvature="0" />
      <g
         id="g23705"
         transform="translate(639.2706,3030.9607)">
        <path
           d="M 0,0 -0.914,2.162 H -7.011 L -7.926,0 h -3.454 l 7.427,15.146 H -3.66 L 3.643,0 Z M -3.973,9.36 -5.971,4.618 h 4.016 z"
           style="fill:#fefefe;fill-opacity:1;fill-rule:nonzero;stroke:none"
           id="path23707"
           inkscape:connector-curvature="0" />
      </g>
      <g
         id="g23709"
         transform="translate(600.2569,3017.5095)">
        <path
           d="M 0,0 C -2.12,0 -3.579,1.486 -3.579,3.502 V 3.52 c 0,1.936 1.508,3.521 3.569,3.521 1.224,0 1.965,-0.332 2.675,-0.933 L 1.722,4.969 c -0.525,0.438 -0.993,0.692 -1.781,0.692 -1.088,0 -1.955,-0.964 -1.955,-2.12 V 3.52 c 0,-1.243 0.856,-2.159 2.064,-2.159 0.544,0 1.029,0.136 1.409,0.41 V 2.743 H -0.049 V 4.036 H 2.908 V 1.079 C 2.207,0.487 1.245,0 0,0"
           style="fill:#fefefe;fill-opacity:1;fill-rule:nonzero;stroke:none"
           id="path23711"
           inkscape:connector-curvature="0" />
      </g>
      <g
         id="g23713"
         transform="translate(610.6124,3020.3391)">
        <path
           d="m 0,0 v -2.713 h -1.496 v 2.685 l -2.617,4.121 h 1.752 l 1.624,-2.73 1.652,2.73 h 1.703 z"
           style="fill:#fefefe;fill-opacity:1;fill-rule:nonzero;stroke:none"
           id="path23715"
           inkscape:connector-curvature="0" />
      </g>
      <g
         id="g23717"
         transform="translate(622.3721,3017.6262)">
        <path
           d="M 0,0 V 4.444 L -1.917,1.537 h -0.038 l -1.897,2.88 V 0 h -1.469 v 6.808 h 1.615 l 1.789,-2.879 1.791,2.879 H 1.487 V 0 Z"
           style="fill:#fefefe;fill-opacity:1;fill-rule:nonzero;stroke:none"
           id="path23719"
           inkscape:connector-curvature="0" />
      </g>
      <g
         id="g23721"
         transform="translate(615.838,3049.8572)">
        <path
           d="m 0,0 c -6.077,0 -11.005,-4.926 -11.005,-11.006 0,-6.074 4.928,-11.003 11.005,-11.003 6.077,0 11.004,4.929 11.004,11.003 C 11.004,-4.926 6.077,0 0,0 m 7.285,-9.433 -3.98,-4.931 -2.751,-3.411 c -0.307,-0.379 -0.802,-0.379 -1.109,0 l -2.751,3.411 -3.979,4.931 c -0.892,1.106 -0.719,2.726 0.386,3.616 1.106,0.893 2.726,0.721 3.618,-0.387 l 3.114,-3.858 c 0.094,-0.113 0.242,-0.113 0.333,0 l 3.114,3.858 c 0.894,1.108 2.514,1.28 3.619,0.387 1.106,-0.89 1.279,-2.51 0.386,-3.616"
           style="fill:#ffc90d;fill-opacity:1;fill-rule:nonzero;stroke:none"
           id="path23723"
           inkscape:connector-curvature="0" />
      </g>
    </g>
  </g>
</svg>
