<?xml version="1.0" encoding="utf-8"?>
<!-- Generator: Adobe Illustrator 16.0.0, SVG Export Plug-In . SVG Version: 6.00 Build 0)  -->
<!DOCTYPE svg PUBLIC "-//W3C//DTD SVG 1.1//EN" "http://www.w3.org/Graphics/SVG/1.1/DTD/svg11.dtd">
<svg version="1.1" id="Layer_1" xmlns="http://www.w3.org/2000/svg" xmlns:xlink="http://www.w3.org/1999/xlink" x="0px" y="0px"
	 width="64px" height="64px" viewBox="0 0 64 64" enable-background="new 0 0 64 64" xml:space="preserve">
<g>
	<g>
		<path fill="#0074A2" d="M4.548,31.999c0,10.899,6.3,20.3,15.5,24.706L6.925,20.827C5.402,24.2,4.5,28,4.5,31.999H4.548z
			 M50.531,30.614c0-3.394-1.219-5.742-2.264-7.57c-1.392-2.263-2.695-4.177-2.695-6.439c0-2.523,1.912-4.872,4.609-4.872
			c0.12,0,0.199,0,0.399,0.022C45.652,7.3,39.1,4.5,32,4.548c-9.591,0-18.027,4.921-22.936,12.4c0.645,0,1.3,0,1.8,0.033
			c2.871,0,7.316-0.349,7.316-0.349c1.479-0.086,1.7,2.1,0.2,2.3c0,0-1.487,0.174-3.142,0.261l9.997,29.735l6.008-18.017
			l-4.276-11.718c-1.479-0.087-2.879-0.261-2.879-0.261c-1.48-0.087-1.306-2.349,0.174-2.262c0,0,4.5,0.3,7.2,0.349
			c2.87,0,7.317-0.349,7.317-0.349c1.479-0.086,1.699,2.1,0.199,2.262c0,0-1.488,0.174-3.142,0.261l9.92,29.508l2.739-9.148
			C49.628,35.7,50.5,33,50.5,30.614H50.531z M32.481,34.4l-8.237,23.934c2.46,0.7,5.1,1.1,7.8,1.1c3.197,0,6.263-0.552,9.116-1.556
			c-0.072-0.118-0.141-0.243-0.196-0.379L32.481,34.4z M56.088,18.8c0.119,0.9,0.2,1.8,0.2,2.823c0,2.785-0.521,5.916-2.088,9.832
			l-8.386,24.242c8.162-4.758,13.65-13.6,13.65-23.728C59.451,27.2,58.2,22.7,56.1,18.83L56.088,18.8z M32,0C14.355,0,0,14.355,0,32
			c0,17.6,14.4,32,32,32c17.6,0,32-14.355,32-32.001C64,14.4,49.6,0,32,0z M32,62.533c-16.835,0-30.533-13.698-30.533-30.534
			C1.467,15.2,15.2,1.5,32,1.5s30.534,13.7,30.5,30.532C62.533,48.8,48.8,62.5,32,62.533z"/>
	</g>
</g>
<path fill-rule="evenodd" clip-rule="evenodd" fill="#F26724" d="M52.332,13.196c0,0-0.164,1-0.088,1.851
	c0.061,0.673,0.363,1.239,0.363,1.239s0.814,0.029,1.611,0.266c0.813,0.242,1.607,0.691,1.607,0.691s-0.908,0.165-1.678,0.459
	c-0.667,0.255-1.211,0.645-1.211,0.645s0.251,0.746,0.279,1.587c0.03,0.875-0.163,1.846-0.163,1.846s-0.384-0.764-0.907-1.393
	c-0.469-0.564-1.083-1-1.083-1s-0.655,0.508-1.409,0.789c-0.835,0.311-1.778,0.398-1.778,0.398s0.578-0.541,1.031-1.247
	c0.365-0.571,0.625-1.336,0.625-1.336s-0.744-0.596-1.271-1.278c-0.534-0.694-0.852-1.473-0.852-1.473s0.775,0.454,1.573,0.668
	c0.699,0.188,1.434,0.142,1.434,0.142s0.247-0.79,0.711-1.483C51.621,13.835,52.332,13.196,52.332,13.196z"/>
</svg>
